/* XPM */
const char *abgx360gui_ExtractVideoSaveButton_XPM[]={
/* abgx360gui_ExtractVideoSaveButton */
"12 8 3 1",
"      c None",
"0     c #000000",
"1     c #515151",
"            ",
"            ",
"            ",
" 01  01  01 ",
" 11  11  11 ",
"            ",
"            ",
"            "};

