/* XPM */
const char *abgx360gui_ID_MNU_MAKEADONATION_1868_XPM[]={
/* abgx360gui_ID_MNU_MAKEADONATION_1868 */
"16 16 63 1",
"      c None",
"0     c #000000",
"1     c #F9F9F9",
"2     c #45FF45",
"3     c #0FFF0F",
"4     c #3AFF3A",
"5     c #04FF04",
"6     c #52FF52",
"7     c #1CFF1C",
"8     c #22FF22",
"9     c #19FF19",
"a     c #00E100",
"b     c #1FFF1F",
"c     c #31FF31",
"d     c #2CFF2C",
"e     c #68FF68",
"f     c #48FF48",
"g     c #07FF07",
"h     c #00B900",
"i     c #00F200",
"j     c #00BC00",
"k     c #00C700",
"l     c #00EB00",
"m     c #00E900",
"n     c #3EFF3E",
"o     c #34FF34",
"p     c #00FF00",
"q     c #00C000",
"r     c #1EFF1E",
"s     c #00DA00",
"t     c #00D100",
"u     c #00D400",
"v     c #30FF30",
"w     c #00DC00",
"x     c #00BF00",
"y     c #00BD00",
"z     c #00DF00",
"A     c #21FF21",
"B     c #00FC00",
"C     c #00FB00",
"D     c #00D900",
"E     c #4BFF4B",
"F     c #50FF50",
"G     c #00CB00",
"H     c #25FF25",
"I     c #24FF24",
"J     c #00EA00",
"K     c #2DFF2D",
"L     c #00EF00",
"M     c #00AA00",
"N     c #00A500",
"O     c #10FF10",
"P     c #13FF13",
"Q     c #37FF37",
"R     c #3DFF3D",
"S     c #00F600",
"T     c #00AD00",
"U     c #008000",
"V     c #00C100",
"W     c #00DD00",
"X     c #009F00",
"Y     c #00E600",
"Z     c #00B000",
"      0000      ",
"      0230      ",
"   00004500000  ",
" 0006789aabcd00 ",
"00efgh0ij00klm0 ",
"0nopq00rs0000h0 ",
"0atuu00vw0  000 ",
"000xyz9AB000000 ",
"  00000CDabEFo00",
"000   09G00HIgJ0",
"0n00000rs00KLMN0",
"0OPQd00450RSTU00",
"00kVGz99asWX000 ",
" 000000ij0000   ",
"      0YZ0      ",
"      0000      "};

