/* XPM */
const char *abgx360gui_SaveButton_XPM[]={
/* abgx360gui_SaveButton */
"16 16 21 1",
"      c None",
"0     c #2C58A0",
"1     c #1C3866",
"2     c #3A70CA",
"3     c #3467BC",
"4     c #5584D1",
"5     c #97B4E3",
"6     c #274D8B",
"7     c #82A5DE",
"8     c #9FB9E5",
"9     c #B0C6EA",
"a     c #C3D4EF",
"b     c #DAE5F6",
"c     c #2D59A3",
"d     c #AAC1E8",
"e     c #C0D1EE",
"f     c #D2DFF4",
"g     c #A5BEE7",
"h     c #B9CDED",
"i     c #CBD9F1",
"j     c #C0C0C0",
"                ",
" 000000000000000",
" 012         310",
" 042 5555555 340",
" 042         340",
" 042 5555555 340",
" 042         340",
" 044333333333440",
" 044444444444440",
" 044466666666440",
" 044677789ab 640",
" 044671cc9ab 640",
" 044671ccdef 640",
" 044671ccghi 640",
" 0446ggi     640",
" j0000000000000j"};

