/* XPM */
const char *abgx360gui_ID_MNU_GOTOABGX360_NET_1869_XPM[]={
/* abgx360gui_ID_MNU_GOTOABGX360_NET_1869 */
"16 16 3 1",
"      c None",
"0     c #00FF00",
"1     c #000000",
"                ",
"                ",
"                ",
"                ",
"001 001  001 001",
"1001100100110011",
"1100110001100111",
" 11111111111111 ",
"  0011000110011 ",
" 001100100110011",
"0011001110011001",
"1111111111111111",
" 11 111  111 111",
"                ",
"                ",
"                "};

