/* XPM */
static char *abgx360gui_DonateButton_XPM[]={
/* abgx360gui_DonateButton */
"64 33 34 1",
"      c None",
"0     c #00FFFF",
"1     c #94A7BD",
"2     c #A4B7CA",
"3     c #88A0B8",
"4     c #6883A2",
"5     c #4E6E92",
"6     c #EAF7FC",
"7     c #325781",
"8     c #FFFFFF",
"9     c #244873",
"a     c #E3F1F7",
"b     c #E9E9E9",
"c     c #C1CDDA",
"d     c #154170",
"e     c #063466",
"f     c #44658B",
"g     c #9DB0C4",
"h     c #E7ECF0",
"i     c #7C96B1",
"j     c #EEF1F4",
"k     c #D1D5DA",
"l     c #B4C4D3",
"m     c #E7F5FA",
"n     c #708CA9",
"o     c #F6F8FA",
"p     c #567698",
"q     c #D7E1E9",
"r     c #C8D3DE",
"s     c #002158",
"t     c #E1E7ED",
"u     c #000000",
"v     c #BBBBBB",
"w     c #22364D",
" 00000000000000000000000000000000000000000000000000000000000000 ",
"0121111111111111111111111111111111111111111111111111111111113450",
"0366666666666666666666666666666666666666666666666666666666666670",
"0388888888888888888888888888888888888888888888888888888888888890",
"048666666aaaaaa66666666666666666666aaaaaa66666666666a33331668b90",
"04888888cdeeeedfg88888888888888888h9eeeee7ij88888888ce77d788jk90",
"04866666i9llllg4e466mmm66666666666ldglll2nd7m6mmm666i7jo5p66jk90",
"04888888f48888882e4f777535555nhp5577888888qd5p777f1o548o7188jk90",
"0486666ad28hf5q8j9d4333pee5n5e4dnn9p884fl885e43334df918qec66jk90",
"0488888rdk8lssg8jd3888883sg8qss28td18hesn885588888leer8gd888jk90",
"048666619o8g94o8re4p97k8rsn8tef885sq8c75t8odf497l8hddo845666jk90",
"048888845888888q7s73lrh81s58j9c82s9j88888j4s9ilrh8re58873888jk90",
"0486666938occ2nds388rl88ps7oo28h9s588rcl39spo8t2j8gs38tdl666jk90",
"048888tec8reedf59o8is58o7fdh8884d9i8j9ed7peq82sdj84sl8ldt888jk90",
"0486662dj819rq62788rgj8qdgdr88ce3dc8qelqmcet8t1t889dh8i76666jk90",
"048888nfhhp5888regjorrh29re28o74ceqh39888jdnjotlhre7hhfn8888jk90",
"048666feeeei6666ne99eeeefp7o8idqneeeep66662ed9eeeeeeeee26666jk90",
"048888kccccj88888kggcrcriek8qe18qcccct88888qgglrccccccco8888jk90",
"04866666666666666666666qd9337fm66666666666666666666666666666jk90",
"0488888888888888888888817777fq888888888888888888888888888888jk90",
"048666666666666666666666666666666666666666666666666666666666jk90",
"048888888888888888888888888888888888888888888888888888888888jk90",
"048666666666666666666666666666666666666666666666666666666666jk90",
"04888888888888uuuu888uuu88u888u888uuu88uuuuu8uuuu88888888888jk90",
"04866666666666u666u6u666u6uu66u66u666u666u666u66666666666666jk90",
"04888888888888u888u8u888u8u8u8u88uuuuu888u888uuu888888888888jk90",
"04866666666666u666u6u666u6u66uu66u666u666u666u66666666666666jk90",
"04888888888888uuuu888uuu88u888u88u888u888u888uuuu88888888888jk90",
"0486666666666666666666666666666666666666666666666666666666668890",
"058jbbbbbbbbbbbbbbbbbbbbbbbbbbbbbbbbbbbbbbbbbbbbbbbbbbbbbbbbql90",
"07qlvvvvvvvvvvvvvvvvvvvvvvvvvvvvvvvvvvvvvvvvvvvvvvvvvvvvvvvvv1w0",
"099wwwwwwwwwwwwwwwwwwwwwwwwwwwwwwwwwwwwwwwwwwwwwwwwwwwwwwwwwwww0",
" 00000000000000000000000000000000000000000000000000000000000000 "};

