/* XPM */
const char *InfoTip_XPM[]={
"16 16 167 2",
"      c None",
" 0    c #DDDEED",
" 1    c #9EA3CE",
" 2    c #888FC5",
" 3    c #878DC5",
" 4    c #999ECB",
" 5    c #D9DBEC",
" 6    c #DFE0EF",
" 7    c #717AC0",
" 8    c #4C5DC6",
" 9    c #5064D4",
" a    c #4F64D9",
" b    c #4B61D8",
" c    c #4459D1",
" d    c #394DC1",
" e    c #5E68B7",
" f    c #DADCEC",
" g    c #CFD1E6",
" h    c #5260BF",
" i    c #556ADC",
" j    c #586FE7",
" k    c #566EE9",
" l    c #536CE9",
" m    c #4F68E8",
" n    c #4A64E8",
" o    c #445EE4",
" p    c #3B53D7",
" q    c #3243B4",
" r    c #C3C5E0",
" s    c #E3E4F1",
" t    c #505FBE",
" u    c #556BE0",
" v    c #576FE8",
" w    c #556EE9",
" x    c #FEFEFF",
" y    c #4560E7",
" z    c #405BE6",
" A    c #3B57E5",
" B    c #324DDA",
" C    c #2B3CB1",
" D    c #747CBF",
" E    c #4E64D9",
" F    c #556DE8",
" G    c #546CE9",
" H    c #516AE9",
" I    c #4D67E8",
" J    c #3A57E6",
" K    c #3552E5",
" L    c #314FE3",
" M    c #2741CF",
" N    c #5660AD",
" O    c #E7E8F3",
" P    c #4052C0",
" Q    c #4F67E5",
" R    c #4761E7",
" S    c #425EE7",
" T    c #3E59E6",
" U    c #3955E5",
" V    c #3451E5",
" W    c #2F4DE4",
" X    c #2D4ADD",
" Y    c #2A45D2",
" Z    c #1A2EA4",
" &    c #E2E3EF",
"0     c #AFB3D6",
"00    c #4054CC",
"01    c #4963E7",
"02    c #304EE4",
"03    c #2D4BE0",
"04    c #2B47D6",
"05    c #2945CE",
"06    c #2842C7",
"07    c #1E32A8",
"08    c #A3A7C9",
"09    c #9499C8",
"0a    c #3D53D0",
"0b    c #445FE7",
"0c    c #425DE7",
"0d    c #3F5BE6",
"0e    c #3B57E6",
"0f    c #3653E5",
"0g    c #2C48D9",
"0h    c #2A45D0",
"0i    c #2842C6",
"0j    c #2740BF",
"0k    c #253EB9",
"0l    c #1E32A2",
"0m    c #868AB5",
"0n    c #9095C7",
"0o    c #354CCD",
"0p    c #3D59E6",
"0q    c #3350E5",
"0r    c #2943C9",
"0s    c #2740C0",
"0t    c #253DB7",
"0u    c #243BB0",
"0v    c #2339AC",
"0w    c #1C2E97",
"0x    c #8387B0",
"0y    c #B0B4D7",
"0z    c #2C42C5",
"0A    c #3250E5",
"0B    c #2D4ADE",
"0C    c #2B47D5",
"0D    c #253DB8",
"0E    c #2238A8",
"0F    c #2136A3",
"0G    c #20359F",
"0H    c #182888",
"0I    c #ABAEC8",
"0J    c #EEEFF6",
"0K    c #2436B1",
"0L    c #2842C5",
"0M    c #2238A9",
"0N    c #2036A1",
"0O    c #1F349B",
"0P    c #1E3296",
"0Q    c #1D3091",
"0R    c #182477",
"0S    c #EEEEF3",
"0T    c #767DB9",
"0U    c #233BC0",
"0V    c #2945CF",
"0W    c #2843C8",
"0X    c #1E3194",
"0Y    c #1D308F",
"0Z    c #1C2E8C",
"0&    c #17267D",
"1     c #7478A0",
"10    c #F1F1F7",
"11    c #37449F",
"12    c #2239B5",
"13    c #253EBB",
"14    c #243CB3",
"15    c #2239AA",
"16    c #2035A0",
"17    c #1F3398",
"18    c #1D3090",
"19    c #1C2E8B",
"1a    c #1B2D87",
"1b    c #17277D",
"1c    c #323A77",
"1d    c #F0F1F5",
"1e    c #DFE1ED",
"1f    c #3B4697",
"1g    c #1D309E",
"1h    c #2036A5",
"1i    c #2036A0",
"1j    c #1C2E8A",
"1k    c #192A81",
"1l    c #152475",
"1m    c #373E79",
"1n    c #DFE0E8",
"1o    c #F3F4F8",
"1p    c #8387B1",
"1q    c #232F82",
"1r    c #162582",
"1s    c #172680",
"1t    c #16257A",
"1u    c #132070",
"1v    c #1F296D",
"1w    c #7F82A3",
"1x    c #F3F4F7",
"1y    c #CBCCDC",
"1z    c #9C9FBB",
"1A    c #9C9FBA",
"1B    c #CACCDA",
"           0 1 2 3 4 5          ",
"       6 7 8 9 a b c d e f      ",
"     g h i j k l m n o p q r    ",
"   s t u v w l x x y z A B C 0  ",
"   D E F G H I x x z J K L M N  ",
" O P Q m I n R S T U V W X Y Z &",
"0 00 n01 R S x x x02030405060708",
"090a0b0c0d0e0f x x0g0h0i0j0k0l0m",
"0n0o0p J0f0q W x x0r0s0t0u0v0w0x",
"0y0z K0A W0B0C x x0D0u0E0F0G0H0I",
"0J0K0B0B04050L x x0M0N0O0P0Q0R0S",
"  0T0U0V0W0j x x x x0X0Y0Z0&1   ",
"  101112131415161718191a1b1c1d  ",
"    1e1f1g1h1i17181j1k1l1m1n    ",
"      1o1p1q1r1s1t1u1v1w1x      ",
"            1y1z1A1B            "};

